Coordinates
version=1
nRows=29
nColumns=24
inDegrees=yes

Units are S.I. units (second, meters, Newtons, ...)
Angles are in degrees.

endheader
time	pelvis_tilt	pelvis_list	pelvis_rotation	pelvis_tx	pelvis_ty	pelvis_tz	hip_flexion_r	hip_adduction_r	hip_rotation_r	knee_angle_r	ankle_angle_r	subtalar_angle_r	mtp_angle_r	hip_flexion_l	hip_adduction_l	hip_rotation_l	knee_angle_l	ankle_angle_l	subtalar_angle_l	mtp_angle_l	lumbar_extension	lumbar_bending	lumbar_rotation
      1.12500000	     21.94650313	     -1.63038886	     12.88498151	     -0.48568882	      0.87098489	     -0.01330333	    -46.45022384	     12.59539594	      0.50354928	      8.52174337	     14.95131935	      3.89543764	     24.57924348	      4.65402038	      3.64997514	     34.04061869	     -8.00301798	    -11.40097767	    -46.73931810	     18.92179844	    -27.05806811	      8.68307952	     -5.37854124
      1.13000000	     21.83809371	     -1.43113727	     13.19518029	     -0.47937250	      0.87022540	     -0.01401635	    -46.54391321	     12.71654279	     -0.12279004	      8.02266921	     15.06302556	      4.32777771	     24.72537277	      4.74165123	      4.14021018	     34.80679940	     -8.62805105	    -11.84273529	    -46.72558769	     18.89457450	    -26.90056765	      8.53935224	     -5.79483154
      1.13500000	     21.76457932	     -1.20511818	     13.41821437	     -0.47296148	      0.86966762	     -0.01458252	    -46.62248815	     12.76296931	     -0.84086847	      7.38885670	     15.26390815	      5.06175990	     25.02865597	      4.72366523	      4.62342243	     35.50076257	     -9.20517457	    -12.52321456	    -46.87146055	     18.81843725	    -26.79414303	      8.33110955	     -6.10862040
      1.14000000	     21.70170801	     -0.98287520	     13.58666361	     -0.46650777	      0.86925001	     -0.01506159	    -46.70339402	     12.76737939	     -1.43397133	      6.73961778	     15.35580282	      5.61144751	     25.39411067	      4.66611999	      5.09038832	     36.15016838	     -9.80131014	    -13.21337883	    -46.96919433	     18.73544263	    -26.70802953	      8.10075638	     -6.36545508
      1.14500000	     21.66233138	     -0.75908594	     13.71493044	     -0.46001879	      0.86897717	     -0.01547761	    -46.79208358	     12.73734229	     -1.97809996	      6.05699645	     15.37747156	      6.15375109	     25.84998310	      4.55884996	      5.54468802	     36.76116221	    -10.41635533	    -13.88625808	    -47.02875529	     18.63901472	    -26.65271725	      7.85328416	     -6.58717533
      1.15000000	     21.63017455	     -0.54349290	     13.78388993	     -0.45347752	      0.86886345	     -0.01580551	    -46.85495616	     12.66333083	     -2.46878981	      5.30806309	     15.36551946	      6.71106637	     26.49815999	      4.41423112	      5.97118684	     37.31334158	    -11.01962950	    -14.59838339	    -47.06791841	     18.50024090	    -26.61111724	      7.58865698	     -6.74382198
      1.15500000	     21.63432231	     -0.33457914	     13.83005178	     -0.44693654	      0.86890453	     -0.01607854	    -46.93200688	     12.57738678	     -2.91339895	      4.52332138	     15.23866389	      7.21689910	     27.17490069	      4.22175294	      6.37465831	     37.81984486	    -11.64928302	    -15.21501550	    -47.03166472	     18.34988655	    -26.61622053	      7.32555424	     -6.88551443
      1.16000000	     21.61723580	     -0.14158826	     13.79760776	     -0.44032192	      0.86909377	     -0.01622452	    -46.94301377	     12.43127117	     -3.27713453	      3.65637327	     15.11041297	      7.75981621	     28.32101215	      4.01429948	      6.73357821	     38.25441781	    -12.21774461	    -15.91888603	    -46.95373820	     18.07069600	    -26.59996119	      7.03541624	     -6.91807368
      1.16500000	     21.63505152	      0.02859030	     13.72518500	     -0.43370025	      0.86946365	     -0.01625982	    -46.97844016	     12.28331065	     -3.46383076	      2.78582194	     14.72638741	      7.77831621	     28.43830352	      3.76396879	      7.03817747	     38.58495414	    -12.78565036	    -16.36380191	    -46.67162255	     18.03628464	    -26.62612620	      6.75399528	     -6.92921919
      1.17000000	     21.67344726	      0.22817267	     13.63801674	     -0.42699999	      0.86997434	     -0.01629112	    -46.93890790	     12.07932568	     -4.00781161	      1.70047680	     14.55021943	      8.87285425	     29.63243300	      3.43970592	      7.35038846	     38.95509393	    -13.29344251	    -16.91052456	    -46.59748543	     17.72705179	    -26.67327282	      6.43784592	     -6.87260832
      1.17500000	     21.72036510	      0.39650488	     13.51227905	     -0.42034039	      0.87064133	     -0.01624391	    -46.94916685	     11.87692926	     -4.17132672	      0.77827745	     13.78260506	      8.76518581	     34.07732178	      3.10958277	      7.61498111	     39.24462897	    -13.80689048	    -17.30412168	    -46.30522380	     16.30033299	    -26.73508278	      6.13946447	     -6.82449024
      1.18000000	     21.78079534	      0.53485142	     13.34060991	     -0.41364400	      0.87146205	     -0.01608966	    -46.84786874	     11.64636042	     -4.49819850	     -0.42563273	     13.43009187	      9.50066365	     34.42061460	      2.75114223	      7.81169038	     39.43033235	    -14.27022410	    -17.62095553	    -45.97754909	     16.12862748	    -26.80882535	      5.84876012	     -6.69197649
      1.18500000	     21.89155694	      0.69121761	     13.10799481	     -0.40694093	      0.87249436	     -0.01580912	    -46.79575424	     11.36171564	     -4.71377975	     -1.62135525	     12.89392238	     10.06072742	     34.74032201	      2.30343967	      7.98079698	     39.51991654	    -14.65613773	    -17.98710615	    -45.66715715	     16.00780402	    -26.94774249	      5.51967465	     -6.50100156
      1.19000000	     21.93683953	      0.76847230	     12.89215072	     -0.40021816	      0.87352947	     -0.01556473	    -46.55511411	     11.11491450	     -5.05714091	     -2.99311489	     12.18545505	     10.61734303	     38.39259425	      1.93467035	      8.08120692	     39.61938701	    -15.05576611	    -17.94084949	    -45.20489883	     14.49581604	    -26.99582825	      5.26543354	     -6.30810627
      1.19500000	     22.04040796	      0.88520270	     12.63133710	     -0.39348682	      0.87475615	     -0.01521672	    -46.34003552	     10.80017679	     -5.44466063	     -4.46364752	     11.60470678	     11.49542680	     38.73645533	      1.46853245	      8.17729289	     39.61336722	    -15.37758481	    -18.10752615	    -44.93143946	     14.33933507	    -27.11827167	      4.95828895	     -6.08892251
      1.20000000	     22.13533641	      0.96735775	     12.33748273	     -0.38675363	      0.87607633	     -0.01480741	    -46.04085739	     10.46421794	     -5.84814435	     -6.05621802	     10.94879883	     12.45889432	     39.35431668	      0.99402529	      8.21324163	     39.54527621	    -15.63554707	    -18.14254488	    -44.60162870	     14.14786004	    -27.22645525	      4.66838806	     -5.82641793
      1.20500000	     22.20548413	      1.00638669	     11.99712800	     -0.38001513	      0.87746925	     -0.01431395	    -45.67679895	     10.11537512	     -6.14078322	     -7.65970381	      9.98998117	     12.98814692	     42.74008591	      0.54826491	      8.19253190	     39.34943782	    -15.87819842	    -17.85379556	    -43.94267759	     12.89374836	    -27.30310677	      4.39597336	     -5.48890703
      1.21000000	     22.32547182	      1.05798818	     11.63065354	     -0.37330337	      0.87898901	     -0.01379796	    -45.29412458	      9.71139133	     -6.55823467	     -9.42365638	      9.15916273	     14.02140785	     43.04184603	     -0.00558608	      8.14957024	     39.17476712	    -15.99422432	    -17.84096880	    -43.79305982	     12.79936082	    -27.43795202	      4.11093869	     -5.11816474
      1.21500000	     22.40014550	      1.07093064	     11.25081847	     -0.36659835	      0.88050395	     -0.01326743	    -44.78197401	      9.28946225	     -7.01647525	    -11.32481371	      8.28223999	     15.11413099	     43.51474855	     -0.50815494	      8.06511264	     38.90252034	    -16.08999040	    -17.69190378	    -43.52871426	     12.71965160	    -27.51769404	      3.85178236	     -4.74621299
      1.22000000	     22.46943223	      1.07531279	     10.85708829	     -0.35991503	      0.88204884	     -0.01273276	    -44.21518243	      8.83570374	     -7.50495887	    -13.29742586	      7.30532498	     16.16762289	     44.11221981	     -1.01894382	      7.96452399	     38.57178887	    -16.14956504	    -17.45928489	    -43.23355006	     12.64316763	    -27.59119204	      3.59649386	     -4.35665717
      1.22500000	     22.50705506	      1.06063441	     10.44349805	     -0.35322938	      0.88359200	     -0.01217832	    -43.56522945	      8.35004789	     -8.00970113	    -15.33781797	      6.25326153	     17.17317445	     44.81429279	     -1.51380464	      7.83956725	     38.18583303	    -16.16142526	    -17.15225684	    -42.93064867	     12.56896971	    -27.62570706	      3.34721570	     -3.94966949
      1.23000000	     22.53940740	      1.03745551	     10.00995395	     -0.34657508	      0.88514143	     -0.01162446	    -42.86827479	      7.82989500	     -8.49858195	    -17.42916769	      5.10037198	     18.07114714	     45.55512323	     -2.02094784	      7.69837589	     37.73312069	    -16.11949597	    -16.80526006	    -42.64774456	     12.50278710	    -27.65452258	      3.10330017	     -3.52487519
      1.23500000	     22.54819364	      1.02034863	      9.56559213	     -0.33987171	      0.88667605	     -0.01102069	    -42.14242448	      7.29239289	     -8.95643831	    -19.46251645	      3.68390459	     18.29848144	     49.58206576	     -2.50488330	      7.55958453	     37.14106878	    -16.08872110	    -16.03386845	    -41.86874798	     11.82577745	    -27.65139973	      2.84003853	     -3.11898684
      1.24000000	     22.53470813	      0.95605419	      9.10695186	     -0.33325123	      0.88817985	     -0.01048609	    -41.32504308	      6.73738449	     -9.38325158	    -21.60652910	      2.42702726	     19.00801607	     49.74759937	     -3.01931288	      7.37245570	     36.67268881	    -15.90784910	    -15.83704269	    -41.95441877	     11.79170972	    -27.62479542	      2.62853704	     -2.66194067
      1.24500000	     22.50671732	      0.92794317	      8.64522757	     -0.32658465	      0.88962383	     -0.00998767	    -40.47459739	      6.11663235	     -9.88155834	    -23.77516274	      1.18773607	     19.62162519	     49.99441534	     -3.55319475	      7.21853249	     36.15258992	    -15.66753122	    -15.43075401	    -41.86100740	     11.81284292	    -27.57654268	      2.38247982	     -2.22714016
      1.25000000	     22.46433512	      0.87257962	      8.18379382	     -0.31995901	      0.89104118	     -0.00950938	    -39.58451831	      5.50709850	    -10.30976655	    -25.92667595	     -0.07464035	     20.00375207	     50.30292349	     -4.06290015	      7.04485515	     35.54773232	    -15.43937997	    -14.95753248	    -41.64610361	     11.87505073	    -27.51130200	      2.16984472	     -1.79129264
      1.25500000	     22.40841847	      0.78925245	      7.70494349	     -0.31332185	      0.89243533	     -0.00900266	    -38.67281547	      4.91893981	    -10.61203001	    -28.02333515	     -1.34993104	     20.02351445	     50.35874251	     -4.60519007	      6.82915711	     34.93581983	    -15.08791039	    -14.65858070	    -41.68306243	     11.90836045	    -27.42318141	      1.97871934	     -1.33620283
      1.26000000	     22.34462401	      0.70684253	      7.22690586	     -0.30669709	      0.89376807	     -0.00856030	    -37.73749181	      4.31210546	    -10.89978664	    -30.10577443	     -2.53903004	     20.04716732	     50.40733907	     -5.15429290	      6.62494594	     34.29771987	    -14.71330307	    -14.28528311	    -41.66633302	     11.97365579	    -27.32372416	      1.79884916	     -0.87437975
      1.26500000	     22.25740808	      0.59583959	      6.72612286	     -0.30009119	      0.89504612	     -0.00810321	    -36.75702658	      3.72466907	    -11.04804263	    -32.15909224	     -3.61780713	     19.94296804	     50.45386996	     -5.68661167	      6.39660769	     33.60788619	    -14.31866326	    -13.75932746	    -41.44254162	     12.13593782	    -27.19746107	      1.64146606	     -0.35800663
